<mxfile host="65bd71144e">
    <diagram id="0i8U5P-g4PSRAFKj64W6" name="Page-1">
        <mxGraphModel dx="1528" dy="1792" grid="1" gridSize="10" guides="1" tooltips="1" connect="1" arrows="1" fold="1" page="1" pageScale="1" pageWidth="850" pageHeight="1100" math="0" shadow="0">
            <root>
                <mxCell id="0"/>
                <mxCell id="1" parent="0"/>
                <mxCell id="2" value="Cloud Custodian Architecture on GCP" style="text;html=1;strokeColor=none;fillColor=none;align=center;fontSize=20;fontStyle=1;" vertex="1" parent="1">
                    <mxGeometry x="350" y="20" width="600" height="50" as="geometry"/>
                </mxCell>
                <mxCell id="3" value="Scheduled Trigger" style="rounded=1;fillColor=#f8cecc;strokeColor=#b85450;html=1;" vertex="1" parent="1">
                    <mxGeometry x="40" y="120" width="140" height="50" as="geometry"/>
                </mxCell>
                <mxCell id="18" value="Manual Trigger (CLI)" style="rounded=1;fillColor=#f8cecc;strokeColor=#b85450;html=1;" vertex="1" parent="1">
                    <mxGeometry x="40" y="190" width="140" height="50" as="geometry"/>
                </mxCell>
                <mxCell id="4" value="Cloud Custodian" style="rounded=1;fillColor=#f5a623;strokeColor=#d79b00;html=1;" vertex="1" parent="1">
                    <mxGeometry x="220" y="155" width="160" height="60" as="geometry"/>
                </mxCell>
                <mxCell id="5" value="Policy Rules" style="shape=note;fillColor=#fff2cc;strokeColor=#d6b656;html=1;" vertex="1" parent="1">
                    <mxGeometry x="220" y="260" width="160" height="80" as="geometry"/>
                </mxCell>
                <mxCell id="6" value="Input Files (CSV/JSON)" style="shape=cylinder;fillColor=#d5e8d4;strokeColor=#82b366;html=1;" vertex="1" parent="1">
                    <mxGeometry x="420" y="155" width="140" height="60" as="geometry"/>
                </mxCell>
                <mxCell id="7" value="BigQuery Processing" style="rounded=1;fillColor=#cfe2f3;strokeColor=#6c8ebf;html=1;" vertex="1" parent="1">
                    <mxGeometry x="600" y="155" width="160" height="60" as="geometry"/>
                </mxCell>
                <mxCell id="8" value="Output Files (Parquet)" style="shape=cylinder;fillColor=#d5e8d4;strokeColor=#82b366;html=1;" vertex="1" parent="1">
                    <mxGeometry x="800" y="155" width="140" height="60" as="geometry"/>
                </mxCell>
                <mxCell id="10" value="BigQuery Table" style="rounded=1;fillColor=#d9d2e9;strokeColor=#9673a6;html=1;" vertex="1" parent="1">
                    <mxGeometry x="800" y="260" width="140" height="60" as="geometry"/>
                </mxCell>
                <mxCell id="9" value="Dashboards (Looker/Grafana)" style="rounded=1;fillColor=#ead1dc;strokeColor=#a64d79;html=1;" vertex="1" parent="1">
                    <mxGeometry x="980" y="208" width="180" height="60" as="geometry"/>
                </mxCell>
                <mxCell id="11" style="endArrow=block;rounded=1;html=1;" edge="1" parent="1" source="3" target="4"/>
                <mxCell id="19" style="endArrow=block;rounded=1;html=1;" edge="1" parent="1" source="18" target="4"/>
                <mxCell id="12" style="endArrow=block;rounded=1;html=1;" edge="1" parent="1" source="4" target="6"/>
                <mxCell id="13" style="endArrow=block;rounded=1;html=1;" edge="1" parent="1" source="5" target="4"/>
                <mxCell id="14" style="endArrow=block;rounded=1;html=1;" edge="1" parent="1" source="6" target="7"/>
                <mxCell id="15" style="endArrow=block;rounded=1;html=1;" edge="1" parent="1" source="7" target="8"/>
                <mxCell id="16" style="endArrow=block;rounded=1;html=1;" edge="1" parent="1" source="8" target="10"/>
                <mxCell id="17" style="endArrow=block;rounded=1;html=1;" edge="1" parent="1" source="10" target="9"/>
            </root>
        </mxGraphModel>
    </diagram>
</mxfile>